<svg width="34" height="14" viewBox="0 0 34 14" fill="none" xmlns="http://www.w3.org/2000/svg">
<g id="apple-pay 1" clip-path="url(#clip0_39_192)">
<path id="Vector" d="M6.44346 1.80469C6.83914 1.3125 7.12176 0.65625 7.03698 0C6.44346 0.0273438 5.7369 0.382812 5.31296 0.847656C4.94555 1.25781 4.6064 1.94141 4.69119 2.57031C5.36949 2.65234 6.01953 2.29688 6.44346 1.80469ZM7.03698 2.73438C6.07605 2.67969 5.25644 3.25391 4.80424 3.25391C4.35204 3.25391 3.64547 2.76172 2.88239 2.76172C1.8932 2.78906 0.988797 3.30859 0.480072 4.18359C-0.537379 5.90625 0.197446 8.44922 1.2149 9.84375C1.69536 10.5273 2.28887 11.293 3.05196 11.2656C3.78679 11.2383 4.06941 10.8008 4.94555 10.8008C5.82169 10.8008 6.07605 11.2656 6.8674 11.2383C7.65875 11.2109 8.16748 10.5547 8.64794 9.84375C9.21319 9.05078 9.43929 8.28516 9.43929 8.25781C9.41103 8.23047 7.88485 7.68359 7.88485 5.98828C7.85659 4.56641 9.07188 3.88281 9.1284 3.85547C8.47836 2.87109 7.40439 2.76172 7.03698 2.73438Z" fill="white"/>
<g id="Group">
<path id="Vector_2" d="M15.3463 0.792969C17.4377 0.792969 18.8791 2.1875 18.8791 4.18359C18.8791 6.20703 17.4094 7.60156 15.2898 7.60156H13.0005V11.1289H11.333V0.792969H15.3463ZM13.0005 6.26172H14.8941C16.3355 6.26172 17.1551 5.49609 17.1551 4.21094C17.1551 2.89844 16.3355 2.16016 14.8941 2.16016H12.9722V6.26172H13.0005ZM19.303 9.02344C19.303 7.71094 20.3487 6.89062 22.2141 6.78125L24.362 6.67188V6.09766C24.362 5.25 23.7685 4.75781 22.8076 4.75781C21.8749 4.75781 21.3097 5.19531 21.1684 5.85156H19.6422C19.727 4.48438 20.9423 3.47266 22.8641 3.47266C24.7577 3.47266 25.973 4.42969 25.973 5.96094V11.1562H24.4468V9.92578H24.4185C23.9663 10.7734 22.9772 11.293 21.9597 11.293C20.377 11.293 19.303 10.3633 19.303 9.02344ZM24.362 8.33984V7.73828L22.4402 7.84766C21.4792 7.90234 20.9423 8.3125 20.9423 8.96875C20.9423 9.625 21.5075 10.0625 22.3554 10.0625C23.4859 10.0625 24.362 9.32422 24.362 8.33984ZM27.3861 13.9453V12.6875C27.4992 12.7148 27.7818 12.7148 27.8948 12.7148C28.6297 12.7148 29.0253 12.4141 29.2797 11.6484C29.2797 11.6211 29.421 11.1836 29.421 11.1836L26.5948 3.63672H28.3188L30.2971 9.78906H30.3254L32.3038 3.63672H33.9995L31.0885 11.5938C30.4102 13.4258 29.6471 14 28.0361 14C27.9231 13.9727 27.5274 13.9727 27.3861 13.9453Z" fill="white"/>
</g>
</g>
<defs>
<clipPath id="clip0_39_192">
<rect width="34" height="14" fill="white"/>
</clipPath>
</defs>
</svg>
