<svg width="21" height="16" viewBox="0 0 21 16" fill="none" xmlns="http://www.w3.org/2000/svg">
<g id="Frame" clip-path="url(#clip0_113_461)">
<path id="Vector" d="M19.9992 1.57461C20.0121 1.49258 20.0121 1.4082 19.9992 1.325C19.9653 1.2418 19.9242 1.16211 19.875 1.08711C19.875 1.08711 19.875 0.9875 19.7871 0.937109C19.725 0.869141 19.6535 0.810545 19.575 0.7625C19.5188 0.720314 19.4602 0.682814 19.3992 0.65C19.3254 0.639453 19.2492 0.639453 19.1742 0.65C19.0477 0.564452 18.9024 0.512891 18.75 0.5H1.24922C1.16719 0.488281 1.08281 0.488281 0.99961 0.5C0.92461 0.489453 0.84961 0.489453 0.77461 0.5C0.713674 0.532814 0.655078 0.570314 0.600001 0.6125C0.520315 0.660548 0.448828 0.719141 0.386719 0.787109C0.386719 0.787109 0.386719 0.886718 0.298828 0.937109H0.3C0.246093 1.00977 0.203907 1.08945 0.174609 1.175C0.161718 1.2582 0.161718 1.34258 0.174609 1.42461C0.0937498 1.51953 0.033984 1.63086 0 1.75038V14.2496C0 14.5812 0.13125 14.9 0.36564 15.1343C0.60003 15.3687 0.91758 15.5 1.24923 15.5H18.75C19.0817 15.5 19.3993 15.3687 19.6336 15.1343C19.868 14.8999 19.9993 14.5812 19.9993 14.2496V1.75038C20.0051 1.69179 20.0051 1.63319 19.9993 1.5746L19.9992 1.57461ZM15.375 2.99961L9.99965 7.60041L4.62425 2.99961H15.375ZM2.49965 13.0004V4.46211L9.18755 10.1996C9.65513 10.6004 10.3442 10.6004 10.8118 10.1996L17.4997 4.46211V13.0004H2.49965Z" fill="black"/>
</g>
<defs>
<clipPath id="clip0_113_461">
<rect width="21" height="16" fill="white"/>
</clipPath>
</defs>
</svg>
